<svg xmlns="http://www.w3.org/2000/svg" width="64" height="64" viewBox="0 0 64 64">
  <g id="Group_3547" data-name="Group 3547" transform="translate(-920 -260)">
    <path id="Path_6012" data-name="Path 6012" d="M176-166a32,32,0,0,0,32-32,32,32,0,0,0-32-32,32,32,0,0,0-32,32A32,32,0,0,0,176-166Z" transform="translate(776 490)" fill="#f35714" fill-rule="evenodd"/>
    <path id="Path_6017" data-name="Path 6017" d="M18-32h0A14,14,0,0,0,32-18,14,14,0,0,0,46-32,14,14,0,0,0,32-46,14,14,0,0,0,18-32Zm23.15,7.75-16.9-16.9a12,12,0,0,1,16.162.738A12,12,0,0,1,41.15-24.25ZM24.24-22.84a12,12,0,0,1-1.4-16.89L39.73-22.84A12,12,0,0,1,24.24-22.84Z" transform="translate(920 324)" fill="#fff"/>
  </g>
</svg>
