<svg xmlns="http://www.w3.org/2000/svg" width="91" height="21" viewBox="0 0 91 21">
  <g id="WKND-account" transform="translate(-942 -10)">
    <text id="Search" transform="translate(971 25)" fill="#909090" font-size="14" font-family="SourceSansPro-Semibold, Source Sans Pro" font-weight="600" letter-spacing="0.04em"><tspan x="0" y="0">ACCOUNT</tspan></text>
    <g id="Dribbble-Light-Preview" transform="translate(562 -2149)">
      <g id="icons" transform="translate(56 160)">
        <path id="profile-_1336_" data-name="profile-[#1336]" d="M334,2011a7.6,7.6,0,0,1,7.784,6H326.216a7.6,7.6,0,0,1,7.784-6m-4-6a4,4,0,1,1,4,4,4,4,0,0,1-4-4m7.758,4.673a6,6,0,1,0-7.516,0A9.62,9.62,0,0,0,324,2019h20a9.62,9.62,0,0,0-6.242-9.327" fill="#909090" fill-rule="evenodd"/>
      </g>
    </g>
    <g id="Dribbble-Light-Preview-2" data-name="Dribbble-Light-Preview" transform="translate(562 -2149)">
      <g id="icons-2" data-name="icons" transform="translate(56 160)">
        <path id="profile-_1336_2" data-name="profile-[#1336]" d="M334,2011a7.6,7.6,0,0,1,7.784,6H326.216a7.6,7.6,0,0,1,7.784-6m-4-6a4,4,0,1,1,4,4,4,4,0,0,1-4-4m7.758,4.673a6,6,0,1,0-7.516,0A9.62,9.62,0,0,0,324,2019h20a9.62,9.62,0,0,0-6.242-9.327" fill="#909090" fill-rule="evenodd"/>
      </g>
    </g>
  </g>
</svg>
